<svg width="17" height="16" viewBox="0 0 17 16" fill="none" xmlns="http://www.w3.org/2000/svg">
<path d="M8.11174 15.3377C5.90495 15.3377 4.02918 14.5939 2.48443 13.1065C0.939674 11.6191 0.167297 9.81299 0.167297 7.68811C0.167297 5.56324 0.939674 3.7571 2.48443 2.26969C4.02918 0.782279 5.90495 0.0385742 8.11174 0.0385742C8.31771 0.0385742 8.52014 0.0456572 8.71905 0.059823C8.91737 0.0739888 9.11215 0.0952374 9.30341 0.123569C8.70022 0.534378 8.21855 1.069 7.8584 1.72742C7.49767 2.38642 7.3173 3.09839 7.3173 3.86334C7.3173 5.13827 7.78072 6.22195 8.70757 7.1144C9.63443 8.00684 10.7599 8.45307 12.084 8.45307C12.8931 8.45307 13.6361 8.27939 14.3128 7.93205C14.9896 7.58527 15.5413 7.12148 15.9679 6.54068C15.9973 6.72484 16.0194 6.91239 16.0341 7.10335C16.0488 7.29487 16.0562 7.48979 16.0562 7.68811C16.0562 9.81299 15.2838 11.6191 13.7391 13.1065C12.1943 14.5939 10.3185 15.3377 8.11174 15.3377ZM8.11174 13.6378C9.40639 13.6378 10.5686 13.2944 11.5985 12.6076C12.6283 11.9203 13.3786 11.0242 13.8494 9.91923C13.5552 9.99006 13.2609 10.0467 12.9667 10.0892C12.6724 10.1317 12.3782 10.153 12.084 10.153C10.2744 10.153 8.73317 9.54043 7.4603 8.31538C6.18801 7.08975 5.55187 5.60574 5.55187 3.86334C5.55187 3.58003 5.57393 3.29671 5.61807 3.0134C5.6622 2.73008 5.72105 2.44676 5.79461 2.16345C4.64708 2.61675 3.7167 3.33921 3.00346 4.33082C2.28964 5.32242 1.93273 6.44152 1.93273 7.68811C1.93273 9.33135 2.53592 10.7338 3.7423 11.8954C4.94868 13.057 6.40516 13.6378 8.11174 13.6378Z" fill="#7E8489"/>
</svg>
