<svg width="21" height="21" viewBox="0 0 21 21" fill="none" xmlns="http://www.w3.org/2000/svg">
<path d="M10.8407 12.815C11.6031 12.815 12.2511 12.5482 12.7847 12.0145C13.3184 11.4809 13.5852 10.8329 13.5852 10.0705C13.5852 9.30819 13.3184 8.66019 12.7847 8.12655C12.2511 7.59291 11.6031 7.32609 10.8407 7.32609C10.0784 7.32609 9.43039 7.59291 8.89675 8.12655C8.36311 8.66019 8.09629 9.30819 8.09629 10.0705C8.09629 10.8329 8.36311 11.4809 8.89675 12.0145C9.43039 12.5482 10.0784 12.815 10.8407 12.815ZM10.8407 14.6446C9.57524 14.6446 8.49667 14.1985 7.60503 13.3062C6.71278 12.4146 6.26666 11.336 6.26666 10.0705C6.26666 8.80504 6.71278 7.72617 7.60503 6.83392C8.49667 5.94228 9.57524 5.49646 10.8407 5.49646C12.1062 5.49646 13.1851 5.94228 14.0773 6.83392C14.969 7.72617 15.4148 8.80504 15.4148 10.0705C15.4148 11.336 14.969 12.4146 14.0773 13.3062C13.1851 14.1985 12.1062 14.6446 10.8407 14.6446ZM1.69259 10.9853C1.43339 10.9853 1.21627 10.8975 1.04124 10.7219C0.865593 10.5468 0.777771 10.3297 0.777771 10.0705C0.777771 9.81133 0.865593 9.59391 1.04124 9.41827C1.21627 9.24323 1.43339 9.15572 1.69259 9.15572H3.52222C3.78141 9.15572 3.99883 9.24323 4.17448 9.41827C4.34951 9.59391 4.43703 9.81133 4.43703 10.0705C4.43703 10.3297 4.34951 10.5468 4.17448 10.7219C3.99883 10.8975 3.78141 10.9853 3.52222 10.9853H1.69259ZM18.1593 10.9853C17.9001 10.9853 17.6829 10.8975 17.5079 10.7219C17.3323 10.5468 17.2444 10.3297 17.2444 10.0705C17.2444 9.81133 17.3323 9.59391 17.5079 9.41827C17.6829 9.24323 17.9001 9.15572 18.1593 9.15572H19.9889C20.2481 9.15572 20.4652 9.24323 20.6402 9.41827C20.8159 9.59391 20.9037 9.81133 20.9037 10.0705C20.9037 10.3297 20.8159 10.5468 20.6402 10.7219C20.4652 10.8975 20.2481 10.9853 19.9889 10.9853H18.1593ZM10.8407 3.66683C10.5815 3.66683 10.3644 3.57901 10.1894 3.40336C10.0137 3.22833 9.92592 3.01121 9.92592 2.75201V0.922383C9.92592 0.663186 10.0137 0.445765 10.1894 0.27012C10.3644 0.0950856 10.5815 0.00756836 10.8407 0.00756836C11.0999 0.00756836 11.3174 0.0950856 11.493 0.27012C11.668 0.445765 11.7555 0.663186 11.7555 0.922383V2.75201C11.7555 3.01121 11.668 3.22833 11.493 3.40336C11.3174 3.57901 11.0999 3.66683 10.8407 3.66683ZM10.8407 20.1335C10.5815 20.1335 10.3644 20.0457 10.1894 19.87C10.0137 19.695 9.92592 19.4779 9.92592 19.2187V17.389C9.92592 17.1299 10.0137 16.9127 10.1894 16.7377C10.3644 16.5621 10.5815 16.4742 10.8407 16.4742C11.0999 16.4742 11.3174 16.5621 11.493 16.7377C11.668 16.9127 11.7555 17.1299 11.7555 17.389V19.2187C11.7555 19.4779 11.668 19.695 11.493 19.87C11.3174 20.0457 11.0999 20.1335 10.8407 20.1335ZM5.03166 5.5422L4.04823 4.58164C3.86527 4.41393 3.77745 4.20047 3.78477 3.94127C3.7927 3.68207 3.88052 3.46099 4.04823 3.27803C4.2312 3.09507 4.45228 3.00359 4.71147 3.00359C4.97067 3.00359 5.18413 3.09507 5.35184 3.27803L6.3124 4.26146C6.48012 4.44442 6.56397 4.65788 6.56397 4.90183C6.56397 5.14578 6.48012 5.35923 6.3124 5.5422C6.14468 5.72516 5.93519 5.81268 5.68392 5.80475C5.43204 5.79743 5.21462 5.70991 5.03166 5.5422ZM16.3296 16.863L15.3691 15.8796C15.2014 15.6966 15.1175 15.4795 15.1175 15.2283C15.1175 14.9764 15.2014 14.7666 15.3691 14.5989C15.5368 14.4159 15.7466 14.3284 15.9985 14.3363C16.2497 14.3436 16.4668 14.4311 16.6498 14.5989L17.6332 15.5594C17.8162 15.7271 17.904 15.9406 17.8967 16.1998C17.8888 16.459 17.8009 16.6801 17.6332 16.863C17.4503 17.046 17.2292 17.1375 16.97 17.1375C16.7108 17.1375 16.4973 17.046 16.3296 16.863ZM15.3691 5.5422C15.1861 5.37448 15.0986 5.16468 15.1065 4.91281C15.1138 4.66154 15.2014 4.44442 15.3691 4.26146L16.3296 3.27803C16.4973 3.09507 16.7108 3.00725 16.97 3.01456C17.2292 3.02249 17.4503 3.11031 17.6332 3.27803C17.8162 3.46099 17.9077 3.68207 17.9077 3.94127C17.9077 4.20047 17.8162 4.41393 17.6332 4.58164L16.6498 5.5422C16.4668 5.70991 16.2534 5.79377 16.0094 5.79377C15.7655 5.79377 15.552 5.70991 15.3691 5.5422ZM4.04823 16.863C3.86527 16.6801 3.77379 16.459 3.77379 16.1998C3.77379 15.9406 3.86527 15.7271 4.04823 15.5594L5.03166 14.5989C5.21462 14.4311 5.43204 14.3473 5.68392 14.3473C5.93519 14.3473 6.14468 14.4311 6.3124 14.5989C6.49536 14.7666 6.58319 14.9764 6.57587 15.2283C6.56794 15.4795 6.48012 15.6966 6.3124 15.8796L5.35184 16.863C5.18413 17.046 4.97067 17.1335 4.71147 17.1256C4.45228 17.1183 4.2312 17.0307 4.04823 16.863Z" fill="#A9AFB5"/>
</svg>
