<svg width="186" height="52" viewBox="0 0 186 52" fill="none" xmlns="http://www.w3.org/2000/svg">
<g clip-path="url(#clip0_1_158)">
<path d="M33.1015 22.2785C35.1309 22.2785 36.776 20.6168 36.776 18.5671C36.776 16.5174 35.1309 14.8557 33.1015 14.8557C31.072 14.8557 29.4269 16.5174 29.4269 18.5671C29.4269 20.6168 31.072 22.2785 33.1015 22.2785Z" fill="#8C99CD"/>
<path d="M47.8098 7.42275C49.8392 7.42275 51.4844 5.76111 51.4844 3.71137C51.4844 1.66164 49.8392 0 47.8098 0C45.7804 0 44.1353 1.66164 44.1353 3.71137C44.1353 5.76111 45.7804 7.42275 47.8098 7.42275Z" fill="#8C99CD"/>
<path d="M33.1015 7.42275C35.1309 7.42275 36.776 5.76111 36.776 3.71137C36.776 1.66164 35.1309 0 33.1015 0C31.072 0 29.4269 1.66164 29.4269 3.71137C29.4269 5.76111 31.072 7.42275 33.1015 7.42275Z" fill="#8C99CD"/>
<path d="M18.3829 7.42275C20.4124 7.42275 22.0575 5.76111 22.0575 3.71137C22.0575 1.66164 20.4124 0 18.3829 0C16.3535 0 14.7084 1.66164 14.7084 3.71137C14.7084 5.76111 16.3535 7.42275 18.3829 7.42275Z" fill="#8C99CD"/>
<path d="M3.67457 7.42275C5.70398 7.42275 7.34914 5.76111 7.34914 3.71137C7.34914 1.66164 5.70398 0 3.67457 0C1.64516 0 0 1.66164 0 3.71137C0 5.76111 1.64516 7.42275 3.67457 7.42275Z" fill="#8C99CD"/>
<path d="M3.67457 22.2785C5.70398 22.2785 7.34914 20.6168 7.34914 18.5671C7.34914 16.5174 5.70398 14.8557 3.67457 14.8557C1.64516 14.8557 0 16.5174 0 18.5671C0 20.6168 1.64516 22.2785 3.67457 22.2785Z" fill="#8C99CD"/>
<path d="M33.1015 22.2785C35.1309 22.2785 36.776 20.6168 36.776 18.5671C36.776 16.5174 35.1309 14.8557 33.1015 14.8557C31.072 14.8557 29.4269 16.5174 29.4269 18.5671C29.4269 20.6168 31.072 22.2785 33.1015 22.2785Z" fill="url(#paint0_linear_1_158)"/>
<path d="M47.8098 7.42275C49.8392 7.42275 51.4844 5.76111 51.4844 3.71137C51.4844 1.66164 49.8392 0 47.8098 0C45.7804 0 44.1353 1.66164 44.1353 3.71137C44.1353 5.76111 45.7804 7.42275 47.8098 7.42275Z" fill="url(#paint1_linear_1_158)"/>
<path d="M33.1015 7.42275C35.1309 7.42275 36.776 5.76111 36.776 3.71137C36.776 1.66164 35.1309 0 33.1015 0C31.072 0 29.4269 1.66164 29.4269 3.71137C29.4269 5.76111 31.072 7.42275 33.1015 7.42275Z" fill="url(#paint2_linear_1_158)"/>
<path d="M18.3829 7.42275C20.4124 7.42275 22.0575 5.76111 22.0575 3.71137C22.0575 1.66164 20.4124 0 18.3829 0C16.3535 0 14.7084 1.66164 14.7084 3.71137C14.7084 5.76111 16.3535 7.42275 18.3829 7.42275Z" fill="url(#paint3_linear_1_158)"/>
<path d="M3.67457 7.42275C5.70398 7.42275 7.34914 5.76111 7.34914 3.71137C7.34914 1.66164 5.70398 0 3.67457 0C1.64516 0 0 1.66164 0 3.71137C0 5.76111 1.64516 7.42275 3.67457 7.42275Z" fill="url(#paint4_linear_1_158)"/>
<path d="M3.67457 22.2785C5.70398 22.2785 7.34914 20.6168 7.34914 18.5671C7.34914 16.5174 5.70398 14.8557 3.67457 14.8557C1.64516 14.8557 0 16.5174 0 18.5671C0 20.6168 1.64516 22.2785 3.67457 22.2785Z" fill="url(#paint5_linear_1_158)"/>
<path d="M106.825 10.818C106.825 9.37639 105.668 8.20776 104.241 8.20776C102.814 8.20776 101.656 9.37639 101.656 10.818V36.8995C101.656 38.3411 102.814 39.5097 104.241 39.5097C105.668 39.5097 106.825 38.3411 106.825 36.8995V10.818Z" fill="white"/>
<path d="M161.065 10.818C161.065 9.37639 159.908 8.20776 158.481 8.20776C157.054 8.20776 155.897 9.37639 155.897 10.818V36.8995C155.897 38.3411 157.054 39.5097 158.481 39.5097C159.908 39.5097 161.065 38.3411 161.065 36.8995V10.818Z" fill="white"/>
<path d="M86.1607 13.4283C84.2417 13.4202 82.363 13.9841 80.7599 15.0494C80.5324 14.4866 80.1176 14.0216 79.587 13.7346C79.0564 13.4477 78.4433 13.3568 77.8534 13.4776C77.2635 13.5985 76.7339 13.9235 76.356 14.3966C75.978 14.8697 75.7754 15.4612 75.783 16.0691V42.12C75.783 42.8123 76.0553 43.4762 76.54 43.9657C77.0246 44.4552 77.682 44.7302 78.3674 44.7302C79.0528 44.7302 79.7101 44.4552 80.1947 43.9657C80.6794 43.4762 80.9517 42.8123 80.9517 42.12V38.0416C82.5005 39.0226 84.2921 39.5422 86.1203 39.5404C91.824 39.5404 96.4475 34.5342 96.4475 28.3247V24.6032C96.4879 18.4345 91.8643 13.4283 86.1607 13.4283ZM91.3192 28.6C91.3906 29.3282 91.3102 30.0635 91.0832 30.7584C90.8562 31.4533 90.4876 32.0925 90.0012 32.6348C89.5147 33.1772 88.9213 33.6106 88.2589 33.9072C87.5966 34.2038 86.8802 34.3571 86.1556 34.3571C85.4311 34.3571 84.7147 34.2038 84.0523 33.9072C83.39 33.6106 82.7965 33.1772 82.3101 32.6348C81.8237 32.0925 81.4551 31.4533 81.2281 30.7584C81.0011 30.0635 80.9207 29.3282 80.9921 28.6V24.3381C80.9207 23.6099 81.0011 22.8746 81.2281 22.1797C81.4551 21.4848 81.8237 20.8456 82.3101 20.3033C82.7965 19.761 83.39 19.3275 84.0523 19.0309C84.7147 18.7343 85.4311 18.581 86.1556 18.581C86.8802 18.581 87.5966 18.7343 88.2589 19.0309C88.9213 19.3275 89.5147 19.761 90.0012 20.3033C90.4876 20.8456 90.8562 21.4848 91.0832 22.1797C91.3102 22.8746 91.3906 23.6099 91.3192 24.3381V28.6Z" fill="white"/>
<path d="M122.321 13.4282C116.617 13.4282 111.984 18.4345 111.984 24.6439V28.3757C111.984 34.5443 116.617 39.5914 122.321 39.5914C128.025 39.5914 132.648 34.5851 132.648 28.3757V24.6031C132.648 18.4345 128.025 13.4282 122.321 13.4282ZM127.49 28.6C127.553 29.3243 127.466 30.0541 127.236 30.7428C127.005 31.4316 126.634 32.0642 126.148 32.6006C125.662 33.137 125.071 33.5653 124.412 33.8583C123.753 34.1513 123.041 34.3026 122.321 34.3026C121.601 34.3026 120.889 34.1513 120.23 33.8583C119.571 33.5653 118.98 33.137 118.494 32.6006C118.007 32.0642 117.637 31.4316 117.406 30.7428C117.175 30.0541 117.089 29.3243 117.152 28.6V24.338C117.089 23.6137 117.175 22.8839 117.406 22.1952C117.637 21.5065 118.007 20.8738 118.494 20.3374C118.98 19.8011 119.571 19.3727 120.23 19.0797C120.889 18.7867 121.601 18.6354 122.321 18.6354C123.041 18.6354 123.753 18.7867 124.412 19.0797C125.071 19.3727 125.662 19.8011 126.148 20.3374C126.634 20.8738 127.005 21.5065 127.236 22.1952C127.466 22.8839 127.553 23.6137 127.49 24.338V28.6Z" fill="white"/>
<path d="M148.154 34.2995C146.783 34.2995 145.468 33.7495 144.499 32.7705C143.53 31.7915 142.985 30.4637 142.985 29.0791V18.6384H148.154C148.81 18.5969 149.426 18.3044 149.876 17.8204C150.326 17.3364 150.577 16.6973 150.577 16.0333C150.577 15.3692 150.326 14.7301 149.876 14.2461C149.426 13.7622 148.81 13.4696 148.154 13.4282H142.985V10.818C142.985 10.1257 142.713 9.46178 142.228 8.97227C141.744 8.48277 141.086 8.20776 140.401 8.20776C139.716 8.20776 139.058 8.48277 138.574 8.97227C138.089 9.46178 137.817 10.1257 137.817 10.818V29.0791C137.819 31.8464 138.91 34.4995 140.848 36.4553C142.786 38.4111 145.414 39.5097 148.154 39.5097C148.81 39.4682 149.426 39.1757 149.876 38.6917C150.326 38.2077 150.577 37.5687 150.577 36.9046C150.577 36.2406 150.326 35.6015 149.876 35.1175C149.426 34.6335 148.81 34.341 148.154 34.2995Z" fill="white"/>
<path d="M184.425 13.6323C183.794 13.3631 183.084 13.3568 182.448 13.6147C181.813 13.8725 181.304 14.3736 181.033 15.0087L175.653 27.6213L170.292 15.0087C170.176 14.6705 169.993 14.36 169.753 14.0965C169.513 13.833 169.222 13.6221 168.898 13.4769C168.574 13.3318 168.224 13.2555 167.87 13.2528C167.516 13.25 167.164 13.321 166.838 13.4611C166.512 13.6012 166.218 13.8076 165.974 14.0674C165.731 14.3272 165.542 14.6349 165.421 14.9713C165.3 15.3077 165.249 15.6656 165.271 16.0229C165.292 16.3801 165.387 16.729 165.548 17.0479L172.846 34.2385L171.978 36.2778C171.593 37.211 170.948 38.0117 170.123 38.5834C169.297 39.1551 168.325 39.4733 167.324 39.4997C166.668 39.5483 166.055 39.8478 165.61 40.3372C165.165 40.8266 164.921 41.4691 164.929 42.1336C164.937 42.7981 165.195 43.4346 165.651 43.9133C166.108 44.392 166.728 44.6769 167.385 44.7099H167.445C169.441 44.663 171.379 44.0334 173.028 42.897C174.676 41.7606 175.963 40.1663 176.733 38.3068L185.748 17.0581C186.019 16.4264 186.033 15.7118 185.785 15.0701C185.537 14.4284 185.049 13.9115 184.425 13.6323Z" fill="white"/>
<path d="M3.67459 29.7114C3.19118 29.7114 2.71253 29.8078 2.26605 29.9949C1.81957 30.1821 1.41404 30.4564 1.0727 30.8021C0.731348 31.1478 0.460891 31.5581 0.276821 32.0096C0.0927515 32.461 -0.00131416 32.9448 1.3868e-05 33.433V48.2887C0.0494007 49.2407 0.458614 50.1372 1.14326 50.7935C1.82791 51.4497 2.73578 51.8155 3.67963 51.8155C4.62349 51.8155 5.53136 51.4497 6.21601 50.7935C6.90065 50.1372 7.30987 49.2407 7.35925 48.2887V33.433C7.35925 32.446 6.97105 31.4994 6.28004 30.8014C5.58903 30.1035 4.65182 29.7114 3.67459 29.7114Z" fill="white"/>
<path d="M33.1014 29.7114C32.6172 29.7101 32.1374 29.8054 31.6898 29.992C31.2421 30.1785 30.8354 30.4526 30.493 30.7985C30.1506 31.1443 29.8792 31.5551 29.6945 32.0072C29.5098 32.4594 29.4154 32.9439 29.4168 33.433V48.2887C29.4661 49.2407 29.8754 50.1373 30.56 50.7935C31.2447 51.4497 32.1525 51.8155 33.0964 51.8155C34.0402 51.8155 34.9481 51.4497 35.6328 50.7935C36.3174 50.1373 36.7266 49.2407 36.776 48.2887V33.433C36.7773 32.9448 36.6833 32.4611 36.4992 32.0096C36.3151 31.5581 36.0447 31.1478 35.7033 30.8021C35.362 30.4564 34.9564 30.1821 34.51 29.9949C34.0635 29.8078 33.5848 29.7114 33.1014 29.7114Z" fill="white"/>
<path d="M18.3829 14.8557C17.4084 14.8557 16.4737 15.2467 15.7846 15.9428C15.0955 16.6388 14.7084 17.5828 14.7084 18.5671V48.2887C14.7578 49.2407 15.167 50.1372 15.8516 50.7935C16.5363 51.4497 17.4441 51.8155 18.388 51.8155C19.3319 51.8155 20.2397 51.4497 20.9244 50.7935C21.609 50.1372 22.0182 49.2407 22.0676 48.2887V18.5671C22.0676 18.0789 21.9722 17.5954 21.7869 17.1445C21.6016 16.6935 21.3301 16.2839 20.9878 15.9392C20.6455 15.5944 20.2392 15.3212 19.7922 15.1353C19.3453 14.9494 18.8663 14.8544 18.3829 14.8557Z" fill="white"/>
<path d="M47.8098 14.8557C46.8343 14.8557 45.8986 15.2464 45.2079 15.9421C44.5172 16.6379 44.1278 17.5818 44.1251 18.5671V48.2887C44.1745 49.2407 44.5837 50.1372 45.2684 50.7934C45.953 51.4497 46.8609 51.8155 47.8047 51.8155C48.7486 51.8155 49.6565 51.4497 50.3411 50.7934C51.0258 50.1372 51.435 49.2407 51.4844 48.2887V18.5671C51.4844 17.5828 51.0972 16.6388 50.4081 15.9427C49.719 15.2467 48.7843 14.8557 47.8098 14.8557Z" fill="white"/>
</g>
<defs>
<linearGradient id="paint0_linear_1_158" x1="1.50497e-05" y1="11.1443" x2="51.4844" y2="11.1443" gradientUnits="userSpaceOnUse">
<stop stop-color="#FF2C6D"/>
<stop offset="0.4" stop-color="#CD74A6"/>
<stop offset="1" stop-color="#7FE4FF"/>
</linearGradient>
<linearGradient id="paint1_linear_1_158" x1="4.47802e-06" y1="11.1443" x2="51.4844" y2="11.1443" gradientUnits="userSpaceOnUse">
<stop stop-color="#FF2C6D"/>
<stop offset="0.4" stop-color="#CD74A6"/>
<stop offset="1" stop-color="#7FE4FF"/>
</linearGradient>
<linearGradient id="paint2_linear_1_158" x1="1.50497e-05" y1="11.1443" x2="51.4844" y2="11.1443" gradientUnits="userSpaceOnUse">
<stop stop-color="#FF2C6D"/>
<stop offset="0.4" stop-color="#CD74A6"/>
<stop offset="1" stop-color="#7FE4FF"/>
</linearGradient>
<linearGradient id="paint3_linear_1_158" x1="-1.19009e-05" y1="11.1443" x2="51.4844" y2="11.1443" gradientUnits="userSpaceOnUse">
<stop stop-color="#FF2C6D"/>
<stop offset="0.4" stop-color="#CD74A6"/>
<stop offset="1" stop-color="#7FE4FF"/>
</linearGradient>
<linearGradient id="paint4_linear_1_158" x1="0" y1="11.1443" x2="51.4844" y2="11.1443" gradientUnits="userSpaceOnUse">
<stop stop-color="#FF2C6D"/>
<stop offset="0.4" stop-color="#CD74A6"/>
<stop offset="1" stop-color="#7FE4FF"/>
</linearGradient>
<linearGradient id="paint5_linear_1_158" x1="0" y1="11.1443" x2="51.4844" y2="11.1443" gradientUnits="userSpaceOnUse">
<stop stop-color="#FF2C6D"/>
<stop offset="0.4" stop-color="#CD74A6"/>
<stop offset="1" stop-color="#7FE4FF"/>
</linearGradient>
<clipPath id="clip0_1_158">
<rect width="186" height="52" fill="white"/>
</clipPath>
</defs>
</svg>
